<svg xmlns="http://www.w3.org/2000/svg" xmlns:xlink="http://www.w3.org/1999/xlink" width="54" height="54" viewBox="0 0 54 54"><defs><clipPath id="clip-path"><rect id="Rectangle_4920" width="54" height="54" fill="#fff" stroke="#707070" stroke-width="1" data-name="Rectangle 4920" transform="translate(1322 1800)"/></clipPath></defs><g id="Railway" clip-path="url(#clip-path)" transform="translate(-1322 -1800)"><g id="_7476992281596026971" data-name="7476992281596027000" transform="translate(1325.309 1800)"><path id="Path_20040" fill="none" stroke="#fff" stroke-linecap="round" stroke-linejoin="round" stroke-miterlimit="10" stroke-width="2" d="M32.965,44H14.418A7.384,7.384,0,0,1,7,36.7V9.3A7.384,7.384,0,0,1,14.418,2H32.965a7.384,7.384,0,0,1,7.418,7.3V36.7A7.384,7.384,0,0,1,32.965,44Z" data-name="Path 20040" transform="translate(0)"/><line id="Line_47" x2="8.785" y1="8.785" fill="none" stroke="#fff" stroke-linecap="round" stroke-linejoin="round" stroke-miterlimit="10" stroke-width="2" data-name="Line 47" transform="translate(7 44.168)"/><line id="Line_48" x1="8.785" y1="8.785" fill="none" stroke="#fff" stroke-linecap="round" stroke-linejoin="round" stroke-miterlimit="10" stroke-width="2" data-name="Line 48" transform="translate(31.231 44.168)"/><path id="Path_20041" fill="none" stroke="#fff" stroke-linecap="round" stroke-linejoin="round" stroke-miterlimit="10" stroke-width="2" d="M32.426,3V19.436a7.413,7.413,0,0,1-7.475,7.3H17.475A7.413,7.413,0,0,1,10,19.436V3" data-name="Path 20041" transform="translate(2.479 0.826)"/><ellipse id="Ellipse_948" cx="2.636" cy="3.075" fill="none" stroke="#fff" stroke-linecap="round" stroke-linejoin="round" stroke-miterlimit="10" stroke-width="2" data-name="Ellipse 948" rx="2.636" ry="3.075" transform="translate(12.369 32.748)"/><ellipse id="Ellipse_949" cx="2.636" cy="3.075" fill="none" stroke="#fff" stroke-linecap="round" stroke-linejoin="round" stroke-miterlimit="10" stroke-width="2" data-name="Ellipse 949" rx="2.636" ry="3.075" transform="translate(29.369 32.748)"/><line id="Line_49" x2="25.988" fill="none" stroke="#fff" stroke-linecap="round" stroke-linejoin="round" stroke-miterlimit="10" stroke-width="2" data-name="Line 49" transform="translate(10.514 49.439)"/></g></g></svg>