<svg xmlns="http://www.w3.org/2000/svg" xmlns:xlink="http://www.w3.org/1999/xlink" width="120" height="120" viewBox="0 0 120 120"><defs><style>.a{fill:none}.a,.b,.c{stroke:#fff}.a,.b{stroke-width:4px;fill-rule:evenodd}.b,.c{fill:url(#a)}.c{stroke-width:8px}</style><linearGradient id="a" x1=".5" x2=".5" y2=".743" gradientUnits="objectBoundingBox"><stop offset="0" stop-color="#003cd5"/><stop offset="1" stop-color="#ffb657"/></linearGradient></defs><g><g><g transform="translate(7 4) translate(-5 -2) translate(0 0)"><path d="M0,0H116V116H0Z" class="a"/><path d="M38.652,2A33.693,33.693,0,0,0,5,35.783C5,61.12,38.652,98.522,38.652,98.522S72.3,61.12,72.3,35.783A33.693,33.693,0,0,0,38.652,2ZM14.615,35.783a24.038,24.038,0,1,1,48.075,0c0,13.9-13.846,34.7-24.037,47.682C28.653,70.579,14.615,49.537,14.615,35.783Z" class="b" transform="translate(19.348 7.739)"/><circle cx="12.174" cy="12.174" r="12.174" class="c" transform="translate(45.826 31.355)"/></g></g></g></svg>